<mxfile host="app.diagrams.net" modified="2024-04-17T12:09:37.379Z" agent="Mozilla/5.0 (Windows NT 10.0; Win64; x64) AppleWebKit/537.36 (KHTML, like Gecko) Chrome/123.0.0.0 Safari/537.36 Edg/123.0.0.0" etag="GDrCKFolL64WPqhWEmyi" version="24.2.5" type="github">
  <diagram name="第 1 页" id="OYcW2uTUYdhTHn-6jK9l">
    <mxGraphModel dx="1173" dy="772" grid="1" gridSize="10" guides="1" tooltips="1" connect="1" arrows="1" fold="1" page="1" pageScale="1" pageWidth="827" pageHeight="1169" math="0" shadow="0">
      <root>
        <mxCell id="0" />
        <mxCell id="1" parent="0" />
        <mxCell id="hH24DwUfG-L9LBzl9QDe-16" value="" style="rounded=0;whiteSpace=wrap;html=1;strokeColor=none;" vertex="1" parent="1">
          <mxGeometry x="40" y="100" width="820" height="540" as="geometry" />
        </mxCell>
        <mxCell id="hH24DwUfG-L9LBzl9QDe-2" value="患者" style="shape=umlActor;verticalLabelPosition=bottom;verticalAlign=top;html=1;outlineConnect=0;fontSize=17;" vertex="1" parent="1">
          <mxGeometry x="190" y="330" width="60" height="120" as="geometry" />
        </mxCell>
        <mxCell id="hH24DwUfG-L9LBzl9QDe-3" value="" style="endArrow=classic;html=1;rounded=0;exitX=1;exitY=0.3333333333333333;exitDx=0;exitDy=0;exitPerimeter=0;entryX=0;entryY=0.5;entryDx=0;entryDy=0;" edge="1" parent="1" source="hH24DwUfG-L9LBzl9QDe-2" target="hH24DwUfG-L9LBzl9QDe-6">
          <mxGeometry width="50" height="50" relative="1" as="geometry">
            <mxPoint x="350" y="370" as="sourcePoint" />
            <mxPoint x="400" y="320" as="targetPoint" />
          </mxGeometry>
        </mxCell>
        <mxCell id="hH24DwUfG-L9LBzl9QDe-4" value="" style="endArrow=classic;html=1;rounded=0;entryX=0;entryY=0.5;entryDx=0;entryDy=0;exitX=1;exitY=0.3333333333333333;exitDx=0;exitDy=0;exitPerimeter=0;" edge="1" parent="1" source="hH24DwUfG-L9LBzl9QDe-2" target="hH24DwUfG-L9LBzl9QDe-9">
          <mxGeometry width="50" height="50" relative="1" as="geometry">
            <mxPoint x="350" y="470" as="sourcePoint" />
            <mxPoint x="510" y="430" as="targetPoint" />
          </mxGeometry>
        </mxCell>
        <mxCell id="hH24DwUfG-L9LBzl9QDe-5" value="" style="group" vertex="1" connectable="0" parent="1">
          <mxGeometry x="470" y="180" width="160" height="80" as="geometry" />
        </mxCell>
        <mxCell id="hH24DwUfG-L9LBzl9QDe-6" value="" style="ellipse;whiteSpace=wrap;html=1;" vertex="1" parent="hH24DwUfG-L9LBzl9QDe-5">
          <mxGeometry width="160" height="80" as="geometry" />
        </mxCell>
        <mxCell id="hH24DwUfG-L9LBzl9QDe-7" value="&lt;font style=&quot;font-size: 16px;&quot;&gt;个人中心&lt;/font&gt;" style="text;html=1;align=center;verticalAlign=middle;whiteSpace=wrap;rounded=0;" vertex="1" parent="hH24DwUfG-L9LBzl9QDe-5">
          <mxGeometry x="35" y="25" width="90" height="30" as="geometry" />
        </mxCell>
        <mxCell id="hH24DwUfG-L9LBzl9QDe-8" value="" style="group" vertex="1" connectable="0" parent="1">
          <mxGeometry x="470" y="330" width="160" height="80" as="geometry" />
        </mxCell>
        <mxCell id="hH24DwUfG-L9LBzl9QDe-9" value="" style="ellipse;whiteSpace=wrap;html=1;" vertex="1" parent="hH24DwUfG-L9LBzl9QDe-8">
          <mxGeometry width="160" height="80" as="geometry" />
        </mxCell>
        <mxCell id="hH24DwUfG-L9LBzl9QDe-10" value="&lt;font style=&quot;font-size: 16px;&quot;&gt;置管日记&lt;/font&gt;" style="text;html=1;align=center;verticalAlign=middle;whiteSpace=wrap;rounded=0;" vertex="1" parent="hH24DwUfG-L9LBzl9QDe-8">
          <mxGeometry x="45" y="25" width="70" height="30" as="geometry" />
        </mxCell>
        <mxCell id="hH24DwUfG-L9LBzl9QDe-11" value="" style="endArrow=classic;html=1;rounded=0;entryX=0;entryY=0.5;entryDx=0;entryDy=0;exitX=1;exitY=0.3333333333333333;exitDx=0;exitDy=0;exitPerimeter=0;" edge="1" parent="1" source="hH24DwUfG-L9LBzl9QDe-2" target="hH24DwUfG-L9LBzl9QDe-13">
          <mxGeometry width="50" height="50" relative="1" as="geometry">
            <mxPoint x="290" y="410" as="sourcePoint" />
            <mxPoint x="550" y="620" as="targetPoint" />
          </mxGeometry>
        </mxCell>
        <mxCell id="hH24DwUfG-L9LBzl9QDe-12" value="" style="group" vertex="1" connectable="0" parent="1">
          <mxGeometry x="470" y="480" width="160" height="80" as="geometry" />
        </mxCell>
        <mxCell id="hH24DwUfG-L9LBzl9QDe-13" value="" style="ellipse;whiteSpace=wrap;html=1;" vertex="1" parent="hH24DwUfG-L9LBzl9QDe-12">
          <mxGeometry width="160" height="80" as="geometry" />
        </mxCell>
        <mxCell id="hH24DwUfG-L9LBzl9QDe-14" value="&lt;font style=&quot;font-size: 16px;&quot;&gt;置管日记&lt;/font&gt;" style="text;html=1;align=center;verticalAlign=middle;whiteSpace=wrap;rounded=0;" vertex="1" parent="hH24DwUfG-L9LBzl9QDe-12">
          <mxGeometry x="45" y="25" width="70" height="30" as="geometry" />
        </mxCell>
        <mxCell id="hH24DwUfG-L9LBzl9QDe-15" value="" style="rounded=0;whiteSpace=wrap;html=1;fillColor=none;" vertex="1" parent="1">
          <mxGeometry x="440" y="120" width="210" height="500" as="geometry" />
        </mxCell>
      </root>
    </mxGraphModel>
  </diagram>
</mxfile>
